<?xml version="1.0" encoding="UTF-8" standalone="no"?>
<!DOCTYPE svg PUBLIC "-//W3C//DTD SVG 1.1//EN"
 "http://www.w3.org/Graphics/SVG/1.1/DTD/svg11.dtd">
<!-- Generated by graphviz version 2.26.0 (20091210.2329)
 -->
<!-- Title: _anonymous_0 Pages: 1 -->
<svg width="370pt" height="191pt"
 viewBox="0.00 0.00 370.00 191.00" xmlns="http://www.w3.org/2000/svg" xmlns:xlink="http://www.w3.org/1999/xlink">
<g id="graph1" class="graph" transform="scale(1 1) rotate(0) translate(4 187)">
<title>_anonymous_0</title>
<polygon fill="white" stroke="white" points="-4,5 -4,-187 367,-187 367,5 -4,5"/>
<g id="graph2" class="cluster"><title>cluster1</title>
<polygon fill="none" stroke="white" points="138,-8 138,-175 354,-175 354,-8 138,-8"/>
</g>
<!-- 0 -->
<g id="node1" class="node"><title>0</title>
<ellipse fill="lightgrey" stroke="lightgrey" cx="319" cy="-92" rx="27" ry="28.2843"/>
<text text-anchor="middle" x="319" y="-95.4" font-family="Times New Roman,serif" font-size="14.00">0</text>
<text text-anchor="middle" x="319" y="-79.4" font-family="Times New Roman,serif" font-size="14.00">00</text>
</g>
<!-- 1 -->
<g id="node3" class="node"><title>1</title>
<ellipse fill="none" stroke="black" cx="173" cy="-130" rx="27" ry="28.2843"/>
<text text-anchor="middle" x="173" y="-133.4" font-family="Times New Roman,serif" font-size="14.00">1</text>
<text text-anchor="middle" x="173" y="-117.4" font-family="Times New Roman,serif" font-size="14.00">10</text>
</g>
<!-- 0&#45;&gt;1 -->
<g id="edge3" class="edge"><title>0&#45;&gt;1</title>
<path fill="none" stroke="black" d="M292.139,-96.4048C271.625,-100.052 242.763,-105.796 218,-113 214.692,-113.962 211.282,-115.056 207.888,-116.213"/>
<polygon fill="black" stroke="black" points="206.7,-112.921 198.466,-119.589 209.061,-119.511 206.7,-112.921"/>
<text text-anchor="middle" x="246" y="-116.4" font-family="Times New Roman,serif" font-size="14.00">(1, 1)</text>
</g>
<!-- 2 -->
<g id="node4" class="node"><title>2</title>
<ellipse fill="none" stroke="black" cx="173" cy="-52" rx="27" ry="28.2843"/>
<text text-anchor="middle" x="173" y="-55.4" font-family="Times New Roman,serif" font-size="14.00">2</text>
<text text-anchor="middle" x="173" y="-39.4" font-family="Times New Roman,serif" font-size="14.00">01</text>
</g>
<!-- 0&#45;&gt;2 -->
<g id="edge5" class="edge"><title>0&#45;&gt;2</title>
<path fill="none" stroke="black" d="M306.297,-67.0112C298.711,-54.9677 287.842,-41.7079 274,-35 253.098,-24.8709 227.23,-29.5047 206.907,-36.473"/>
<polygon fill="black" stroke="black" points="205.557,-33.2409 197.421,-40.0269 208.013,-39.7959 205.557,-33.2409"/>
<text text-anchor="middle" x="246" y="-38.4" font-family="Times New Roman,serif" font-size="14.00">(0.5, 1)</text>
</g>
<!-- 3 -->
<g id="node2" class="node"><title>3</title>
<ellipse fill="none" stroke="black" cx="27" cy="-106" rx="27" ry="28.2843"/>
<text text-anchor="middle" x="27" y="-109.4" font-family="Times New Roman,serif" font-size="14.00">3</text>
<text text-anchor="middle" x="27" y="-93.4" font-family="Times New Roman,serif" font-size="14.00">11</text>
</g>
<!-- 3&#45;&gt;1 -->
<g id="edge15" class="edge"><title>3&#45;&gt;1</title>
<path fill="none" stroke="black" d="M46.2478,-126.123C53.6275,-132.471 62.5591,-138.688 72,-142 93.0001,-149.366 117.802,-146.571 137.573,-141.835"/>
<polygon fill="black" stroke="black" points="138.64,-145.173 147.407,-139.224 136.844,-138.407 138.64,-145.173"/>
<text text-anchor="middle" x="100" y="-149.4" font-family="Times New Roman,serif" font-size="14.00">(30, 1)</text>
</g>
<!-- 3&#45;&gt;2 -->
<g id="edge17" class="edge"><title>3&#45;&gt;2</title>
<path fill="none" stroke="black" d="M39.9902,-81.1471C47.5935,-69.39 58.391,-56.5226 72,-50 91.9324,-40.4466 116.718,-40.7844 136.748,-43.5898"/>
<polygon fill="black" stroke="black" points="136.3,-47.0633 146.737,-45.2424 137.443,-40.1571 136.3,-47.0633"/>
<text text-anchor="middle" x="100" y="-53.4" font-family="Times New Roman,serif" font-size="14.00">(20, 0.25)</text>
</g>
<!-- 1&#45;&gt;0 -->
<g id="edge7" class="edge"><title>1&#45;&gt;0</title>
<path fill="none" stroke="black" d="M200.022,-134.503C220.877,-136.861 250.106,-137.695 274,-129 280.514,-126.63 286.765,-122.877 292.427,-118.652"/>
<polygon fill="black" stroke="black" points="294.748,-121.275 300.263,-112.229 290.311,-115.861 294.748,-121.275"/>
<text text-anchor="middle" x="246" y="-139.4" font-family="Times New Roman,serif" font-size="14.00">(20, 0.25)</text>
</g>
<!-- 1&#45;&gt;3 -->
<g id="edge9" class="edge"><title>1&#45;&gt;3</title>
<path fill="none" stroke="black" d="M146.221,-125.598C123.213,-121.816 89.7978,-116.323 64.1938,-112.114"/>
<polygon fill="black" stroke="black" points="64.5386,-108.624 54.1033,-110.455 63.4031,-115.531 64.5386,-108.624"/>
<text text-anchor="middle" x="100" y="-125.4" font-family="Times New Roman,serif" font-size="14.00">(0.5, 1)</text>
</g>
<!-- 2&#45;&gt;0 -->
<g id="edge11" class="edge"><title>2&#45;&gt;0</title>
<path fill="none" stroke="black" d="M199.243,-59.1898C222.541,-65.5728 256.809,-74.9614 282.726,-82.062"/>
<polygon fill="black" stroke="black" points="281.991,-85.4895 292.561,-84.7563 283.841,-78.7383 281.991,-85.4895"/>
<text text-anchor="middle" x="246" y="-83.4" font-family="Times New Roman,serif" font-size="14.00">(30, 1)</text>
</g>
<!-- 2&#45;&gt;3 -->
<g id="edge13" class="edge"><title>2&#45;&gt;3</title>
<path fill="none" stroke="black" d="M147.569,-61.4061C123.952,-70.1411 88.57,-83.2275 62.236,-92.9675"/>
<polygon fill="black" stroke="black" points="60.7946,-89.7688 52.6297,-96.5205 63.2229,-96.3342 60.7946,-89.7688"/>
<text text-anchor="middle" x="100" y="-92.4" font-family="Times New Roman,serif" font-size="14.00">(1, 1)</text>
</g>
</g>
</svg>
